<svg width="121" height="121" viewBox="0 0 121 121" fill="none" xmlns="http://www.w3.org/2000/svg">
<path fill-rule="evenodd" clip-rule="evenodd" d="M74.034 0.0605469L66.4092 13.4362C64.4613 13.1822 62.4573 13.0602 60.4414 13.0602C58.1605 13.0602 55.9135 13.2072 53.7226 13.5292L45.2538 0.467535C40.934 1.5967 36.8001 3.20505 32.9102 5.2172L35.5661 20.4038C31.9922 22.7197 28.7533 25.5236 25.9424 28.7165L11.1298 24.2166C8.58061 27.8255 6.39557 31.7074 4.66123 35.8413L16.3489 45.747C15.1079 49.7499 14.4089 53.9858 14.2859 58.3716L0.0683594 64.5585C0.419289 69.0853 1.26352 73.4872 2.53649 77.6841L17.786 77.6521C19.43 81.636 21.6089 85.3489 24.2239 88.6838L17.2861 102.655C20.377 105.825 23.7939 108.655 27.5048 111.085L39.1924 101.185C42.9053 103.135 46.9112 104.585 51.1291 105.465L54.692 120.655C56.5899 120.835 58.4959 120.935 60.4418 120.935C62.9607 120.935 65.4406 120.765 67.8786 120.465L70.5345 105.275C74.7334 104.335 78.6963 102.825 82.3782 100.805L94.7838 110.155C98.4247 107.615 101.783 104.695 104.783 101.435L97.1277 88.0578C99.6866 84.6819 101.833 80.947 103.413 76.9341L118.842 76.0581C120.002 71.8313 120.712 67.4124 120.942 62.8715L106.592 57.5907C106.402 53.2118 105.592 49.0119 104.283 45.028L115.562 34.3093C113.722 30.2305 111.432 26.3806 108.782 22.8417L94.4408 28.1225C91.5779 24.9796 88.305 22.2537 84.6911 19.9978L86.503 4.46722C82.5621 2.56707 78.3889 1.06842 74.034 0.0605469Z" fill="white" stroke="#DEDEDD" stroke-width="0.0573563"/>
</svg>
