<svg width="232" height="271" viewBox="0 0 232 271" fill="none" xmlns="http://www.w3.org/2000/svg">
<path d="M99 198C72.7436 198 47.5625 187.57 28.9964 169.004C10.4303 150.437 -7.30405e-07 125.256 0 99C7.30405e-07 72.7436 10.4303 47.5625 28.9964 28.9964C47.5625 10.4303 72.7436 -3.13105e-07 99 0L116 0V59.004H99C88.3924 59.004 78.2193 63.2178 70.7186 70.7186C63.2179 78.2193 59.004 88.3924 59.004 99C59.004 109.608 63.2179 119.781 70.7186 127.281C78.2193 134.782 88.3924 138.996 99 138.996H116V198H99Z" fill="#FD801A"/>
<path d="M133 73C159.256 73 184.437 83.4303 203.004 101.996C221.57 120.563 232 145.744 232 172C232 198.256 221.57 223.437 203.004 242.004C184.437 260.57 159.256 271 133 271L116 271L116 211.996L133 211.996C143.608 211.996 153.781 207.782 161.281 200.281C168.782 192.781 172.996 182.608 172.996 172C172.996 161.392 168.782 151.219 161.281 143.719C153.781 136.218 143.608 132.004 133 132.004L116 132.004L116 73L133 73Z" fill="#AF52DE"/>
</svg>
