<svg width="413" height="337" viewBox="0 0 413 337" fill="none" xmlns="http://www.w3.org/2000/svg">
<path d="M318.708 183.419C337.114 183.419 352.036 167.33 352.036 147.485C352.036 127.639 337.114 111.551 318.708 111.551C300.302 111.551 285.381 127.639 285.381 147.485C285.381 167.33 300.302 183.419 318.708 183.419Z" fill="#37D0F5"/>
<path d="M352.032 147.489C352.032 167.329 337.113 183.415 318.703 183.415C306.992 183.415 296.68 176.892 290.754 167.034C295.097 169.278 299.962 170.529 305.093 170.529C323.494 170.529 338.422 154.442 338.422 134.593C338.422 127.39 336.457 120.678 333.068 115.057C344.291 120.839 352.032 133.19 352.032 147.489Z" fill="#00ACEF"/>
<path d="M143.638 49.6289C146.583 49.0381 149.341 51.3691 149.512 54.5945L155.8 173.232C155.982 176.691 153.742 179.77 150.58 180.405L104.031 189.738L92.9757 191.955C89.8105 192.582 86.7016 190.583 85.712 187.281L52.0427 74.1274C51.1271 71.0512 52.9237 67.8076 55.8693 67.2176L121.692 54.0289L143.638 49.6289Z" fill="#F73E3E"/>
<path d="M143.638 49.6289C146.583 49.0381 149.341 51.3691 149.512 54.5945L155.8 173.232C155.982 176.691 153.742 179.77 150.58 180.405L104.031 189.738C130.082 156.362 127.18 94.4253 121.692 54.0289L143.638 49.6289Z" fill="#EB1410"/>
<path d="M98.8924 81.3313C92.7124 81.3313 87.7031 75.9293 87.7031 69.2669V12.0703C87.7031 5.40697 92.7132 0.00585938 98.8924 0.00585938C105.072 0.00585938 110.082 5.40784 110.082 12.0703V69.2669C110.083 75.9293 105.072 81.3313 98.8924 81.3313Z" fill="#F8B159"/>
<path d="M394.528 223.175H19.3681C18.3736 205.212 24.2253 186.882 36.9562 173.155C49.2398 159.92 65.4778 153.565 81.5573 154.093C95.8555 154.558 109.473 147.229 117.671 134.602C128.596 117.755 146.723 106.736 167.237 106.736C186.533 106.736 203.707 116.478 214.781 131.652C219.927 138.703 228.498 141.786 236.447 139.106C242.158 137.175 248.225 136.129 254.524 136.129C260.6 136.129 266.46 137.095 271.989 138.9C285.143 143.172 296.399 152.144 304.099 164.013C308.682 171.082 316.59 174.603 324.463 173.039C343.361 169.277 363.602 175.273 378.224 191.038C386.72 200.189 392.141 211.396 394.528 223.175Z" fill="#F9DAC0"/>
<path d="M394.528 223.175H184.395C243.982 199.644 265.209 165.675 271.989 138.9C285.143 143.172 296.399 152.145 304.099 164.013C308.683 171.082 316.59 174.604 324.464 173.039C343.362 169.277 363.603 175.273 378.224 191.039C386.72 200.189 392.14 211.396 394.528 223.175Z" fill="#F9C6A5"/>
<path d="M386.239 336.534H26.1169C21.5388 336.534 17.8281 332.533 17.8281 327.597V234.035H394.528V327.597C394.528 332.532 390.817 336.534 386.239 336.534Z" fill="#439EF4"/>
<path d="M394.527 234.037V327.598C394.527 332.531 390.814 336.535 386.239 336.535H357.668C362.244 336.535 365.957 332.531 365.957 327.598V234.037H394.527Z" fill="#1680F6"/>
<path d="M394.528 294.879V327.597C394.528 332.531 390.815 336.534 386.24 336.534H26.115C21.5393 336.534 17.8262 332.531 17.8262 327.597V294.879H394.528Z" fill="#1680F6"/>
<path d="M394.527 294.879V327.597C394.527 332.531 390.814 336.534 386.239 336.534H357.668C362.244 336.534 365.957 332.531 365.957 327.597V294.879H394.527Z" fill="#4C60DC"/>
<path d="M407.177 256.601H5.17819C2.43135 256.601 0.205078 254.201 0.205078 251.239V215.233C0.205078 212.271 2.43135 209.871 5.17819 209.871H407.177C409.924 209.871 412.15 212.271 412.15 215.233V251.239C412.15 254.2 409.924 256.601 407.177 256.601Z" fill="#37D0F5"/>
<path d="M285.459 182.413C282.026 182.413 279.203 179.412 279.203 175.71C279.203 172.009 281.948 169.008 285.381 169.008H285.459C288.892 169.008 291.675 172.009 291.675 175.71C291.676 179.412 288.892 182.413 285.459 182.413Z" fill="#F9DAC0"/>
<path d="M152.138 148.432C148.704 148.432 145.883 145.431 145.883 141.73C145.883 138.028 148.627 135.027 152.061 135.027H152.138C155.572 135.027 158.355 138.028 158.355 141.73C158.354 145.431 155.571 148.432 152.138 148.432Z" fill="#F9C6A5"/>
<path d="M135.063 170.004C131.63 170.004 128.809 167.004 128.809 163.302C128.809 159.6 131.553 156.6 134.987 156.6H135.064C138.497 156.6 141.28 159.6 141.28 163.302C141.28 167.004 138.497 170.004 135.063 170.004Z" fill="#F9C6A5"/>
<path d="M240.1 101.725L256.376 57.4695C258.682 51.1992 255.837 44.1004 250.022 41.6132C244.206 39.1269 237.622 42.1944 235.316 48.4648L219.039 92.7208C217.32 97.3949 213.544 100.965 208.942 101.784C204.7 102.538 200.921 105.601 199.22 110.225L183.184 153.827L227.369 172.719L243.405 129.117C245.106 124.493 244.3 119.47 241.69 115.786C238.861 111.789 238.38 106.4 240.1 101.725Z" fill="#5AC034"/>
<path d="M236.038 180.333C232.387 157.674 214.078 140.438 192.018 140.438C169.958 140.438 151.649 157.674 147.998 180.333H236.038Z" fill="#F9DAC0"/>
<path d="M235.849 182.067C232.757 182.526 229.87 180.429 229.009 177.195C224.355 159.712 209.305 147.14 192.017 147.14C186.556 147.14 181.284 148.346 176.347 150.725C173.296 152.195 169.583 150.925 168.084 147.705C166.488 144.279 167.869 140.145 171.076 138.582C177.677 135.365 184.723 133.734 192.018 133.734C214.919 133.734 234.853 150.413 240.986 173.597C242.02 177.513 239.588 181.511 235.849 182.067Z" fill="#F9C6A5"/>
</svg>
