<svg width="1565" height="202" viewBox="0 0 1565 202" fill="none" xmlns="http://www.w3.org/2000/svg">
<path d="M1348.85 98.2172C1359.63 109.001 1374.26 115.059 1389.51 115.059L1507.51 115.113C1515.05 115.113 1522.29 118.11 1527.62 123.445C1532.95 128.779 1535.95 136.015 1535.95 143.559C1535.95 151.103 1532.95 158.339 1527.62 163.673C1522.29 169.008 1515.05 172.005 1507.51 172.005H1332.01L1332.01 201.059H1507.51C1522.76 201.059 1537.38 195.001 1548.16 184.218C1558.95 173.434 1565.01 158.809 1565.01 143.559C1565.01 128.309 1558.95 113.684 1548.16 102.9C1537.38 92.1166 1522.76 86.0586 1507.51 86.0586L1492.51 86.0046H1389.51C1381.96 86.0046 1374.73 83.0076 1369.39 77.673C1364.06 72.3383 1361.06 65.1029 1361.06 57.5586C1361.06 50.0143 1364.06 42.7789 1369.39 37.4442C1374.73 32.1096 1381.96 29.1126 1389.51 29.1126H1565.01V0.0585938H1389.51C1374.26 0.0585938 1359.63 6.11661 1348.85 16.9C1338.06 27.6833 1332.01 42.3087 1332.01 57.5586C1332.01 72.8085 1338.06 87.4339 1348.85 98.2172Z" fill="#FD801A"/>
<path d="M16.8414 98.1586C27.6247 108.942 42.25 115 57.5 115L175.5 115.054C183.044 115.054 190.28 118.051 195.614 123.386C200.949 128.72 203.946 135.956 203.946 143.5C203.946 151.044 200.949 158.28 195.614 163.614C190.28 168.949 183.044 171.946 175.5 171.946H2.53998e-06L0 201H175.5C190.75 201 205.375 194.942 216.159 184.159C226.942 173.375 233 158.75 233 143.5C233 128.25 226.942 113.625 216.159 102.841C205.375 92.058 190.75 86 175.5 86L160.5 85.946H57.5C49.9557 85.946 42.7203 82.949 37.3856 77.6144C32.051 72.2797 29.054 65.0443 29.054 57.5C29.054 49.9557 32.051 42.7203 37.3856 37.3856C42.7203 32.051 49.9557 29.054 57.5 29.054H233V0H57.5C42.2501 0 27.6247 6.05802 16.8414 16.8414C6.05802 27.6247 0 42.2501 0 57.5C0 72.7499 6.05802 87.3753 16.8414 98.1586Z" fill="#FD801A"/>
<path d="M1037 -0.000773171C1052.25 -0.000773838 1066.88 6.05733 1077.66 16.8407C1088.44 27.624 1094.5 42.2495 1094.5 57.4995C1094.5 72.7494 1088.44 87.375 1077.66 98.1584C1066.88 108.942 1052.25 115 1037 115L897 115L897 201L868 201L868 85.9457L997.5 85.9457L1037 85.9458C1044.54 85.9458 1051.78 82.9488 1057.11 77.6141C1062.45 72.2795 1065.45 65.0439 1065.45 57.4995C1065.45 49.9551 1062.45 42.7197 1057.11 37.385C1051.78 32.0504 1044.54 29.0534 1037 29.0534L868 29.0534L868 -0.000773656L1037 -0.000773171Z" fill="#FD801A"/>
<path d="M1209.9 201.181C1225.15 201.15 1242.23 195.07 1252.99 184.292C1263.75 173.514 1269.78 158.913 1269.75 143.7L1269.77 0.0585924L1240.7 0.0586493L1240.7 143.758C1240.71 151.284 1237.73 158.507 1232.4 163.84C1227.08 169.172 1219.85 172.176 1212.31 172.191C1185.41 172.244 1166.9 172.191 1156.4 172.191C1156.4 183.677 1156.4 187.644 1156.4 201.183C1166.9 201.182 1193.65 201.213 1209.9 201.181Z" fill="#FD801A"/>
<path d="M294 0H520V29H428V200.5H396V29H294V0Z" fill="#FD801A"/>
<path d="M581 0H807V29H581V0Z" fill="#FD801A"/>
<rect x="581" y="86" width="226" height="29" fill="#FD801A"/>
<rect x="581" y="172" width="226" height="29" fill="#FD801A"/>
<circle cx="1192" cy="32" r="32" fill="#AF52DE"/>
</svg>
