<svg width="1565" height="429" viewBox="0 0 1565 429" fill="none" xmlns="http://www.w3.org/2000/svg">
<path d="M397.137 367.6C397.137 368.827 396.763 369.628 396.016 370.002C395.322 370.376 394.467 370.562 393.453 370.562C392.546 370.562 391.638 370.482 390.73 370.322C389.876 370.215 389.049 369.975 388.248 369.602C387.501 369.228 386.833 368.721 386.246 368.08C385.712 367.439 385.339 366.612 385.125 365.598C384.378 362.395 383.951 359.271 383.844 356.229C383.737 353.132 383.684 349.956 383.684 346.699V336.85C383.684 332.365 383.87 327.721 384.244 322.916C384.618 318.058 385.018 313.387 385.445 308.902C385.445 308.742 385.472 308.555 385.525 308.342C385.579 308.128 385.605 307.968 385.605 307.861C385.659 307.274 385.739 306.633 385.846 305.939C385.952 305.245 386.113 304.632 386.326 304.098C386.593 303.51 386.94 303.03 387.367 302.656C387.848 302.283 388.462 302.096 389.209 302.096C390.063 302.096 390.864 302.283 391.611 302.656C392.412 302.977 393.106 303.43 393.693 304.018C394.281 304.551 394.734 305.219 395.055 306.02C395.428 306.82 395.615 307.648 395.615 308.502C395.615 309.57 395.562 310.691 395.455 311.865C395.402 312.986 395.322 314.081 395.215 315.148C395.108 315.896 395.028 316.456 394.975 316.83C394.975 317.204 394.948 317.818 394.895 318.672C395.535 317.551 396.256 316.43 397.057 315.309C397.911 314.134 398.845 313.12 399.859 312.266C400.874 311.358 401.968 310.637 403.143 310.104C404.37 309.516 405.678 309.223 407.066 309.223C408.454 309.223 409.602 309.463 410.51 309.943C411.417 310.37 412.138 310.984 412.672 311.785C413.206 312.533 413.579 313.44 413.793 314.508C414.007 315.576 414.113 316.697 414.113 317.871C414.113 318.618 414.087 319.339 414.033 320.033C414.033 320.727 414.007 321.421 413.953 322.115C413.9 322.809 413.846 323.503 413.793 324.197C413.793 324.838 413.793 325.532 413.793 326.279C413.793 327.667 413.82 329.002 413.873 330.283C413.98 331.511 414.087 332.819 414.193 334.207C414.727 332.445 415.368 330.443 416.115 328.201C416.916 325.959 417.824 323.663 418.838 321.314C419.906 318.965 421.053 316.67 422.281 314.428C423.562 312.132 424.924 310.104 426.365 308.342C427.86 306.58 429.462 305.165 431.17 304.098C432.878 302.977 434.667 302.416 436.535 302.416C439.471 302.416 441.527 303.27 442.701 304.979C443.929 306.687 444.543 308.876 444.543 311.545C444.543 312.292 444.516 313.093 444.463 313.947C444.41 314.748 444.329 315.522 444.223 316.27C443.956 319.152 443.742 322.115 443.582 325.158C443.475 328.201 443.422 331.164 443.422 334.047V335.568C443.422 339.305 443.582 342.829 443.902 346.139C444.223 349.449 444.863 352.945 445.824 356.629L446.465 358.791C446.678 359.538 446.919 360.366 447.186 361.273C447.506 362.181 447.773 363.062 447.986 363.916C448.2 364.77 448.387 365.571 448.547 366.318C448.707 367.066 448.787 367.653 448.787 368.08C448.787 369.201 448.387 369.949 447.586 370.322C446.785 370.696 445.958 370.883 445.104 370.883C444.57 370.883 443.956 370.856 443.262 370.803C442.568 370.803 441.874 370.723 441.18 370.562C440.539 370.456 439.898 370.269 439.258 370.002C438.671 369.735 438.19 369.388 437.816 368.961V369.041C437.336 368.561 436.989 367.973 436.775 367.279C436.562 366.585 436.402 365.891 436.295 365.197L436.135 364.477C435.387 361.594 434.747 359.005 434.213 356.709C433.732 354.413 433.332 352.118 433.012 349.822C432.691 347.527 432.451 345.151 432.291 342.695C432.184 340.24 432.131 337.41 432.131 334.207C432.131 331.484 432.238 328.708 432.451 325.879C432.718 323.049 432.985 320.273 433.252 317.551C433.252 317.284 433.252 316.99 433.252 316.67C433.305 316.296 433.359 315.976 433.412 315.709C431.383 318.859 429.595 322.329 428.047 326.119C426.552 329.856 425.191 333.7 423.963 337.65C422.788 341.601 421.747 345.578 420.84 349.582C419.986 353.533 419.212 357.296 418.518 360.873C418.518 360.926 418.624 361.247 418.838 361.834C419.105 362.368 419.345 363.008 419.559 363.756C419.826 364.45 420.066 365.144 420.279 365.838C420.493 366.479 420.6 366.906 420.6 367.119C420.6 368.347 420.199 369.094 419.398 369.361C418.598 369.628 417.77 369.762 416.916 369.762C416.275 369.762 415.581 369.735 414.834 369.682C414.087 369.628 413.339 369.495 412.592 369.281C411.898 369.068 411.23 368.774 410.59 368.4C410.003 368.08 409.522 367.6 409.148 366.959C408.828 366.425 408.454 365.171 408.027 363.195C407.6 361.167 407.146 358.818 406.666 356.148C406.186 353.426 405.732 350.516 405.305 347.42C404.878 344.324 404.477 341.387 404.104 338.611C403.73 335.835 403.436 333.406 403.223 331.324C403.009 329.242 402.902 327.827 402.902 327.08V325.879C401.194 329.562 399.779 333.513 398.658 337.73C397.537 341.948 396.683 346.085 396.096 350.143L395.775 351.584C395.669 352.011 395.589 352.438 395.535 352.865C395.482 353.239 395.455 353.613 395.455 353.986C395.455 354.574 395.508 355.294 395.615 356.148C395.775 357.003 395.962 357.937 396.176 358.951C396.443 360.339 396.656 361.781 396.816 363.275C397.03 364.717 397.137 366.158 397.137 367.6ZM487.945 366.959C487.945 368.027 487.678 368.747 487.145 369.121C486.611 369.548 485.863 369.762 484.902 369.762C482.393 369.762 480.578 369.094 479.457 367.76C478.389 366.425 477.589 364.663 477.055 362.475C476.895 361.727 476.734 360.98 476.574 360.232C476.414 359.432 476.281 358.658 476.174 357.91C476.067 357.216 475.96 356.736 475.854 356.469C475.747 356.202 475.64 355.695 475.533 354.947C474.893 356.495 474.092 358.124 473.131 359.832C472.223 361.487 471.156 363.035 469.928 364.477C468.7 365.865 467.312 367.012 465.764 367.92C464.269 368.827 462.614 369.281 460.799 369.281C458.877 369.281 457.275 368.827 455.994 367.92C454.713 366.959 453.699 365.785 452.951 364.396C452.257 362.955 451.75 361.38 451.43 359.672C451.163 357.964 451.029 356.335 451.029 354.787C451.029 351.157 451.376 347.233 452.07 343.016C452.818 338.745 453.832 334.501 455.113 330.283C456.395 326.012 457.889 321.928 459.598 318.031C461.306 314.081 463.174 310.637 465.203 307.701V307.781L465.684 307.061C466.271 306.26 466.938 305.406 467.686 304.498C468.486 303.537 469.421 303.057 470.488 303.057C471.503 303.057 472.383 303.51 473.131 304.418C473.878 305.272 474.412 306.18 474.732 307.141C476.12 307.408 477.242 307.755 478.096 308.182C478.95 308.555 479.617 309.036 480.098 309.623C480.578 310.21 480.898 310.904 481.059 311.705C481.219 312.452 481.299 313.28 481.299 314.188C481.299 314.561 481.299 314.962 481.299 315.389C481.299 315.816 481.272 316.243 481.219 316.67C481.165 317.097 481.139 317.604 481.139 318.191C481.139 318.779 481.139 319.312 481.139 319.793C481.139 320.327 481.219 321.021 481.379 321.875C481.592 322.729 481.806 323.61 482.02 324.518L482.58 327.48C482.847 329.029 483.061 330.79 483.221 332.766C483.434 334.741 483.674 336.716 483.941 338.691C484.155 340.72 484.368 342.695 484.582 344.617C484.796 346.486 485.009 348.221 485.223 349.822L487.145 361.674L487.385 363.035C487.492 363.729 487.598 364.37 487.705 364.957C487.865 365.544 487.945 366.212 487.945 366.959ZM469.607 320.914C469.607 320.807 469.581 320.647 469.527 320.434C469.474 320.167 469.421 319.9 469.367 319.633C468.139 322.249 467.045 325.105 466.084 328.201C465.176 331.244 464.402 334.367 463.762 337.57C463.174 340.72 462.721 343.896 462.4 347.1C462.133 350.249 462 353.239 462 356.068C462 356.335 462 356.576 462 356.789C462 357.003 462.027 357.216 462.08 357.43V357.51C463.361 355.535 464.456 352.945 465.363 349.742C466.324 346.486 467.125 343.096 467.766 339.572C468.406 335.995 468.86 332.552 469.127 329.242C469.447 325.879 469.607 323.103 469.607 320.914ZM532.469 369.201C532.469 369.788 532.148 370.322 531.508 370.803C530.867 371.283 530.12 371.684 529.266 372.004C528.465 372.324 527.637 372.564 526.783 372.725C525.929 372.938 525.262 373.045 524.781 373.045C523.874 373.045 523.046 372.858 522.299 372.484C521.551 372.164 520.857 371.737 520.217 371.203C519.576 370.669 518.962 370.082 518.375 369.441C517.841 368.801 517.334 368.16 516.854 367.52C514.985 365.224 513.063 362.661 511.088 359.832C509.113 357.003 507.351 354.307 505.803 351.744C505.803 351.958 505.829 352.225 505.883 352.545C505.936 352.865 505.963 353.132 505.963 353.346C506.07 354.467 506.15 355.588 506.203 356.709C506.31 357.777 506.443 358.871 506.604 359.992C506.657 360.633 506.71 361.273 506.764 361.914C506.87 362.501 506.977 363.142 507.084 363.836C507.191 364.69 507.298 365.544 507.404 366.398C507.511 367.253 507.564 368.133 507.564 369.041C507.564 370.162 507.244 370.91 506.604 371.283C505.963 371.71 505.109 371.924 504.041 371.924C503.294 371.924 502.493 371.87 501.639 371.764C500.785 371.657 499.957 371.443 499.156 371.123C498.355 370.803 497.635 370.376 496.994 369.842C496.354 369.308 495.873 368.614 495.553 367.76C495.393 367.119 495.232 365.918 495.072 364.156C494.912 362.395 494.779 360.446 494.672 358.311C494.565 356.122 494.458 353.933 494.352 351.744C494.298 349.555 494.245 347.74 494.191 346.299C494.191 345.979 494.165 345.712 494.111 345.498C494.111 345.285 494.111 345.071 494.111 344.857C493.684 344.484 493.311 344.03 492.99 343.496C492.67 342.962 492.51 342.455 492.51 341.975C492.51 341.281 492.643 340.667 492.91 340.133C493.177 339.599 493.471 339.092 493.791 338.611C493.471 332.045 493.311 325.505 493.311 318.992C493.311 313.6 493.364 308.262 493.471 302.977C493.631 297.638 493.764 292.299 493.871 286.961L494.111 276.23C494.165 275.697 494.191 275.003 494.191 274.148C494.191 273.294 494.191 272.387 494.191 271.426C494.191 270.251 494.191 269.023 494.191 267.742C494.191 266.461 494.218 265.26 494.271 264.139C494.325 263.018 494.378 262.003 494.432 261.096C494.485 260.188 494.592 259.521 494.752 259.094V259.174C494.965 258.373 495.259 257.786 495.633 257.412C496.007 257.038 496.647 256.852 497.555 256.852C499.797 256.852 501.532 257.519 502.76 258.854C503.988 260.188 504.602 261.977 504.602 264.219C504.602 267.796 504.575 271.372 504.521 274.949C504.521 278.473 504.495 282.023 504.441 285.6C504.388 289.176 504.335 292.753 504.281 296.33C504.281 299.854 504.281 303.404 504.281 306.98C504.281 308.262 504.281 309.57 504.281 310.904C504.335 312.186 504.361 313.493 504.361 314.828C504.415 315.896 504.441 316.99 504.441 318.111C504.441 319.232 504.441 320.407 504.441 321.635L513.09 307.861V307.941L513.811 306.5C513.971 306.233 514.051 306.046 514.051 305.939C514.104 305.833 514.158 305.699 514.211 305.539C514.318 305.326 514.505 305.005 514.771 304.578C515.092 304.151 515.626 303.51 516.373 302.656C516.64 302.389 516.96 302.149 517.334 301.936C517.708 301.722 518.188 301.615 518.775 301.615C519.363 301.615 519.95 301.802 520.537 302.176C521.178 302.496 521.738 302.923 522.219 303.457C522.699 303.991 523.1 304.578 523.42 305.219C523.74 305.859 523.9 306.447 523.9 306.98C523.9 307.408 523.66 308.155 523.18 309.223C522.699 310.237 522.059 311.492 521.258 312.986C520.51 314.481 519.656 316.109 518.695 317.871C517.734 319.579 516.72 321.314 515.652 323.076C514.638 324.838 513.65 326.546 512.689 328.201C511.729 329.856 510.874 331.324 510.127 332.605L508.045 335.969C509.273 338.104 510.688 340.48 512.289 343.096C513.944 345.658 515.679 348.247 517.494 350.863C519.309 353.479 521.151 355.988 523.02 358.391C524.941 360.793 526.81 362.902 528.625 364.717L529.426 365.357C530.066 365.838 530.734 366.425 531.428 367.119C532.122 367.76 532.469 368.454 532.469 369.201ZM560.977 353.346C560.977 354.947 560.523 356.602 559.615 358.311C558.761 360.019 557.64 361.594 556.252 363.035C554.864 364.423 553.262 365.571 551.447 366.479C549.686 367.386 547.924 367.84 546.162 367.84C543.653 367.84 541.491 367.359 539.676 366.398C537.861 365.384 536.286 364.049 534.951 362.395C533.617 360.686 532.522 358.764 531.668 356.629C530.867 354.493 530.227 352.305 529.746 350.062C529.266 347.767 528.919 345.498 528.705 343.256C528.545 340.96 528.465 338.878 528.465 337.01C528.465 335.408 528.545 333.513 528.705 331.324C528.919 329.135 529.239 326.867 529.666 324.518C530.146 322.169 530.787 319.846 531.588 317.551C532.389 315.255 533.376 313.2 534.551 311.385C535.779 309.57 537.22 308.102 538.875 306.98C540.583 305.859 542.532 305.299 544.721 305.299C546.429 305.299 547.951 305.646 549.285 306.34C550.673 307.034 551.821 307.968 552.729 309.143C553.689 310.264 554.41 311.572 554.891 313.066C555.424 314.561 555.691 316.109 555.691 317.711C555.691 319.793 555.211 322.062 554.25 324.518C553.289 326.973 552.035 329.349 550.486 331.645C548.992 333.94 547.283 336.022 545.361 337.891C543.493 339.706 541.624 341.094 539.756 342.055C539.863 343.016 540.076 344.43 540.396 346.299C540.717 348.114 541.144 349.929 541.678 351.744C542.265 353.559 542.932 355.134 543.68 356.469C544.48 357.803 545.415 358.471 546.482 358.471C547.016 358.471 547.47 358.311 547.844 357.99C548.271 357.67 548.645 357.243 548.965 356.709C549.285 356.175 549.552 355.588 549.766 354.947C550.033 354.307 550.273 353.693 550.486 353.105L550.967 351.984C551.074 351.824 551.127 351.717 551.127 351.664C551.18 351.611 551.234 351.531 551.287 351.424C551.661 350.73 552.008 350.089 552.328 349.502C552.702 348.915 553.209 348.408 553.85 347.98H553.77C553.983 347.767 554.197 347.66 554.41 347.66C554.677 347.607 554.917 347.58 555.131 347.58C555.718 347.58 556.359 347.767 557.053 348.141C557.747 348.514 558.387 348.995 558.975 349.582C559.562 350.116 560.042 350.73 560.416 351.424C560.79 352.064 560.977 352.705 560.977 353.346ZM545.121 318.031C545.121 317.497 545.094 316.937 545.041 316.35C544.988 315.762 544.854 315.255 544.641 314.828C543.893 315.736 543.226 316.83 542.639 318.111C542.105 319.339 541.651 320.647 541.277 322.035C540.904 323.37 540.583 324.731 540.316 326.119C540.103 327.507 539.943 328.788 539.836 329.963C541.224 328.308 542.452 326.439 543.52 324.357C544.587 322.222 545.121 320.113 545.121 318.031ZM661.154 274.148C661.154 280.661 661.101 287.174 660.994 293.688C660.887 300.201 660.62 306.714 660.193 313.227C659.82 319.686 659.259 326.146 658.512 332.605C657.764 339.065 656.777 345.525 655.549 351.984L654.268 358.391C654.428 358.764 654.695 359.378 655.068 360.232C655.495 361.033 655.923 361.914 656.35 362.875C656.777 363.783 657.15 364.637 657.471 365.438C657.791 366.238 657.951 366.772 657.951 367.039C657.951 367.733 657.658 368.267 657.07 368.641C656.536 369.014 655.896 369.281 655.148 369.441C654.401 369.655 653.627 369.788 652.826 369.842C652.025 369.895 651.385 369.922 650.904 369.922C650.317 369.922 649.757 369.895 649.223 369.842C648.689 369.842 648.182 369.762 647.701 369.602C646.473 369.174 645.646 368.694 645.219 368.16C644.792 367.626 644.285 366.826 643.697 365.758C641.455 361.487 639.48 357.083 637.771 352.545C636.117 347.954 634.648 343.309 633.367 338.611C632.086 333.86 630.938 329.109 629.924 324.357C628.91 319.553 627.949 314.775 627.041 310.023C625.119 327.641 622.076 345.098 617.912 362.395C618.393 363.355 618.926 364.423 619.514 365.598C620.154 366.719 620.475 367.84 620.475 368.961C620.475 369.708 620.234 370.296 619.754 370.723C619.273 371.15 618.66 371.443 617.912 371.604C617.218 371.764 616.471 371.844 615.67 371.844C614.923 371.897 614.282 371.897 613.748 371.844C613.588 371.951 613.428 372.031 613.268 372.084C613.107 372.137 612.894 372.164 612.627 372.164C610.758 372.164 609.264 371.604 608.143 370.482C607.075 369.361 606.221 368 605.58 366.398C603.712 361.54 602.057 356.389 600.615 350.943C599.174 345.498 597.919 339.973 596.852 334.367C595.784 328.762 594.85 323.183 594.049 317.631C593.301 312.025 592.661 306.607 592.127 301.375C591.38 295.022 590.659 288.696 589.965 282.396C589.271 276.097 588.924 269.717 588.924 263.258C588.924 262.137 589.084 261.283 589.404 260.695C589.725 260.055 590.525 259.734 591.807 259.734C593.782 259.734 595.303 260.055 596.371 260.695C597.492 261.283 598.32 262.11 598.854 263.178C599.441 264.192 599.814 265.393 599.975 266.781C600.188 268.169 600.348 269.664 600.455 271.266C601.523 283.117 602.831 294.915 604.379 306.66C605.927 318.405 608.143 330.043 611.025 341.574C612.467 334.154 613.561 326.733 614.309 319.312C615.109 311.839 615.883 304.365 616.631 296.891C616.791 294.915 616.898 292.913 616.951 290.885C617.005 288.856 617.085 286.827 617.191 284.799C617.352 282.717 617.538 280.661 617.752 278.633C618.019 276.604 618.446 274.629 619.033 272.707C619.514 270.999 620.288 269.691 621.355 268.783C622.423 267.876 623.891 267.422 625.76 267.422C627.575 267.422 628.99 267.822 630.004 268.623C631.018 269.424 631.792 270.438 632.326 271.666C632.913 272.84 633.314 274.175 633.527 275.67C633.741 277.165 633.928 278.579 634.088 279.914C635.369 289.577 637.024 299.133 639.053 308.582C641.135 318.031 643.59 327.427 646.42 336.77C647.488 328.495 648.155 320.247 648.422 312.025C648.689 303.804 648.822 295.503 648.822 287.121C648.822 282.37 648.769 277.592 648.662 272.787C648.609 267.982 648.288 263.151 647.701 258.293C647.701 257.706 647.648 257.172 647.541 256.691C647.434 256.211 647.381 255.677 647.381 255.09C647.381 253.969 647.728 253.168 648.422 252.688C649.116 252.154 649.997 251.887 651.064 251.887C651.758 251.887 652.506 251.967 653.307 252.127C654.161 252.234 654.988 252.421 655.789 252.688C656.643 252.901 657.417 253.195 658.111 253.568C658.859 253.942 659.446 254.396 659.873 254.93C660.087 255.197 660.247 255.784 660.354 256.691C660.514 257.599 660.647 258.693 660.754 259.975C660.861 261.256 660.941 262.617 660.994 264.059C661.048 265.5 661.074 266.888 661.074 268.223C661.128 269.557 661.154 270.758 661.154 271.826C661.154 272.894 661.154 273.668 661.154 274.148ZM700.312 353.346C700.312 354.947 699.859 356.602 698.951 358.311C698.097 360.019 696.976 361.594 695.588 363.035C694.2 364.423 692.598 365.571 690.783 366.479C689.021 367.386 687.26 367.84 685.498 367.84C682.989 367.84 680.827 367.359 679.012 366.398C677.197 365.384 675.622 364.049 674.287 362.395C672.952 360.686 671.858 358.764 671.004 356.629C670.203 354.493 669.562 352.305 669.082 350.062C668.602 347.767 668.255 345.498 668.041 343.256C667.881 340.96 667.801 338.878 667.801 337.01C667.801 335.408 667.881 333.513 668.041 331.324C668.255 329.135 668.575 326.867 669.002 324.518C669.482 322.169 670.123 319.846 670.924 317.551C671.725 315.255 672.712 313.2 673.887 311.385C675.115 309.57 676.556 308.102 678.211 306.98C679.919 305.859 681.868 305.299 684.057 305.299C685.765 305.299 687.286 305.646 688.621 306.34C690.009 307.034 691.157 307.968 692.064 309.143C693.025 310.264 693.746 311.572 694.227 313.066C694.76 314.561 695.027 316.109 695.027 317.711C695.027 319.793 694.547 322.062 693.586 324.518C692.625 326.973 691.37 329.349 689.822 331.645C688.327 333.94 686.619 336.022 684.697 337.891C682.829 339.706 680.96 341.094 679.092 342.055C679.199 343.016 679.412 344.43 679.732 346.299C680.053 348.114 680.48 349.929 681.014 351.744C681.601 353.559 682.268 355.134 683.016 356.469C683.816 357.803 684.751 358.471 685.818 358.471C686.352 358.471 686.806 358.311 687.18 357.99C687.607 357.67 687.98 357.243 688.301 356.709C688.621 356.175 688.888 355.588 689.102 354.947C689.368 354.307 689.609 353.693 689.822 353.105L690.303 351.984C690.41 351.824 690.463 351.717 690.463 351.664C690.516 351.611 690.57 351.531 690.623 351.424C690.997 350.73 691.344 350.089 691.664 349.502C692.038 348.915 692.545 348.408 693.186 347.98H693.105C693.319 347.767 693.533 347.66 693.746 347.66C694.013 347.607 694.253 347.58 694.467 347.58C695.054 347.58 695.695 347.767 696.389 348.141C697.083 348.514 697.723 348.995 698.311 349.582C698.898 350.116 699.378 350.73 699.752 351.424C700.126 352.064 700.312 352.705 700.312 353.346ZM684.457 318.031C684.457 317.497 684.43 316.937 684.377 316.35C684.324 315.762 684.19 315.255 683.977 314.828C683.229 315.736 682.562 316.83 681.975 318.111C681.441 319.339 680.987 320.647 680.613 322.035C680.24 323.37 679.919 324.731 679.652 326.119C679.439 327.507 679.279 328.788 679.172 329.963C680.56 328.308 681.788 326.439 682.855 324.357C683.923 322.222 684.457 320.113 684.457 318.031ZM740.832 322.756C740.832 324.945 740.725 327.374 740.512 330.043C740.298 332.659 739.978 335.382 739.551 338.211C739.124 341.04 738.536 343.896 737.789 346.779C737.095 349.609 736.241 352.331 735.227 354.947C734.212 357.563 733.011 359.992 731.623 362.234C730.288 364.423 728.767 366.265 727.059 367.76C725.831 368.827 724.443 369.682 722.895 370.322C721.4 371.016 719.852 371.363 718.25 371.363C717.663 371.363 717.049 371.257 716.408 371.043C715.768 370.883 715.287 370.456 714.967 369.762C713.792 369.655 712.618 369.415 711.443 369.041C710.322 368.721 709.388 367.973 708.641 366.799C708.48 366.425 708.347 365.971 708.24 365.438C708.133 364.904 708.027 364.343 707.92 363.756C707.867 363.489 707.813 363.249 707.76 363.035C707.706 362.768 707.653 362.528 707.6 362.314C706.051 352.705 704.984 343.096 704.396 333.486C703.863 323.877 703.596 314.188 703.596 304.418C703.596 303.564 703.596 302.069 703.596 299.934C703.596 297.798 703.596 295.369 703.596 292.646C703.649 289.924 703.676 287.068 703.676 284.078C703.729 281.089 703.783 278.286 703.836 275.67C703.889 273.054 703.969 270.812 704.076 268.943C704.183 267.021 704.29 265.794 704.396 265.26C704.61 264.512 704.904 263.898 705.277 263.418C705.651 262.938 706.292 262.697 707.199 262.697C709.708 262.697 711.497 263.498 712.564 265.1C713.686 266.648 714.246 268.57 714.246 270.865V291.445C714.246 293.954 714.246 296.223 714.246 298.252C714.246 300.227 714.246 302.176 714.246 304.098C714.299 305.966 714.353 307.915 714.406 309.943C714.46 311.919 714.54 314.134 714.646 316.59C715.287 315.148 716.061 313.734 716.969 312.346C717.93 310.958 718.997 309.703 720.172 308.582C721.346 307.461 722.654 306.553 724.096 305.859C725.537 305.165 727.139 304.818 728.9 304.818C731.463 304.818 733.518 305.379 735.066 306.5C736.668 307.621 737.869 309.062 738.67 310.824C739.524 312.533 740.085 314.454 740.352 316.59C740.672 318.725 740.832 320.781 740.832 322.756ZM729.781 320.914C729.781 319.846 729.728 318.672 729.621 317.391C729.568 316.109 729.247 314.988 728.66 314.027C728.18 314.401 727.753 314.801 727.379 315.229C727.059 315.656 726.712 316.136 726.338 316.67L726.178 316.91V316.83C724.683 319.286 723.455 322.142 722.494 325.398C721.587 328.655 720.839 332.045 720.252 335.568C719.718 339.038 719.344 342.508 719.131 345.979C718.917 349.395 718.811 352.492 718.811 355.268C718.811 355.855 718.811 356.736 718.811 357.91C718.864 359.031 718.971 359.965 719.131 360.713C721.213 358.951 722.921 356.389 724.256 353.025C725.644 349.609 726.738 345.952 727.539 342.055C728.393 338.104 728.98 334.234 729.301 330.443C729.621 326.653 729.781 323.477 729.781 320.914ZM797.768 309.303C797.768 309.943 797.527 310.477 797.047 310.904C796.62 311.331 796.086 311.705 795.445 312.025C794.805 312.292 794.137 312.479 793.443 312.586C792.803 312.693 792.269 312.746 791.842 312.746C791.201 312.746 790.587 312.693 790 312.586C789.413 312.426 788.826 312.266 788.238 312.105C787.651 311.945 787.09 311.812 786.557 311.705C786.023 311.545 785.462 311.465 784.875 311.465C784.074 311.465 783.273 311.598 782.473 311.865C781.672 312.132 780.951 312.506 780.311 312.986C779.67 313.467 779.136 314.054 778.709 314.748C778.335 315.442 778.148 316.216 778.148 317.07C778.148 318.352 778.415 319.633 778.949 320.914C779.483 322.142 780.177 323.396 781.031 324.678C781.939 325.959 782.953 327.267 784.074 328.602C785.249 329.883 786.477 331.191 787.758 332.525C789.306 334.234 790.854 335.969 792.402 337.73C794.004 339.492 795.419 341.334 796.646 343.256C797.928 345.178 798.969 347.206 799.77 349.342C800.57 351.477 800.971 353.719 800.971 356.068C800.971 358.097 800.624 359.912 799.93 361.514C799.289 363.115 798.355 364.477 797.127 365.598C795.952 366.719 794.511 367.573 792.803 368.16C791.148 368.801 789.333 369.121 787.357 369.121C786.824 369.121 785.996 369.014 784.875 368.801C783.807 368.587 782.579 368.294 781.191 367.92C779.803 367.493 778.362 367.039 776.867 366.559C775.426 366.078 774.091 365.571 772.863 365.037C771.689 364.45 770.701 363.889 769.9 363.355C769.153 362.768 768.779 362.234 768.779 361.754C768.779 361.113 769.073 360.473 769.66 359.832C770.247 359.138 770.941 358.524 771.742 357.99C772.543 357.403 773.37 356.923 774.225 356.549C775.132 356.175 775.88 355.988 776.467 355.988C777.268 355.988 778.095 356.175 778.949 356.549C779.857 356.923 780.764 357.35 781.672 357.83C782.686 358.364 783.701 358.844 784.715 359.271C785.783 359.699 786.877 359.912 787.998 359.912C788.852 359.912 789.333 359.618 789.439 359.031C789.6 358.444 789.68 357.777 789.68 357.029C789.68 355.161 789.359 353.399 788.719 351.744C788.078 350.036 787.251 348.381 786.236 346.779C785.222 345.178 784.048 343.63 782.713 342.135C781.378 340.587 780.044 339.065 778.709 337.57C777.321 336.076 775.96 334.581 774.625 333.086C773.344 331.591 772.196 330.07 771.182 328.521C770.167 326.92 769.34 325.292 768.699 323.637C768.112 321.982 767.818 320.22 767.818 318.352C767.818 316.056 768.326 314.001 769.34 312.186C770.354 310.317 771.662 308.715 773.264 307.381C774.919 306.046 776.76 305.032 778.789 304.338C780.871 303.59 782.953 303.217 785.035 303.217C785.729 303.217 786.797 303.377 788.238 303.697C789.68 303.964 791.094 304.365 792.482 304.898C793.87 305.432 795.098 306.073 796.166 306.82C797.234 307.568 797.768 308.395 797.768 309.303ZM815.145 300.654C815.145 301.562 814.931 302.229 814.504 302.656C814.13 303.03 813.41 303.217 812.342 303.217C811.861 303.217 811.114 303.163 810.1 303.057C809.085 302.896 808.044 302.683 806.977 302.416C805.962 302.149 805.055 301.775 804.254 301.295C803.507 300.814 803.133 300.227 803.133 299.533C803.133 299.32 803.213 298.732 803.373 297.771C803.533 296.757 803.72 295.689 803.934 294.568C804.201 293.447 804.414 292.433 804.574 291.525C804.788 290.618 804.948 290.111 805.055 290.004V290.084C805.322 289.657 805.642 289.39 806.016 289.283C806.389 289.176 806.763 289.123 807.137 289.123C807.617 289.123 808.231 289.203 808.979 289.363C809.779 289.47 810.553 289.657 811.301 289.924C812.102 290.137 812.822 290.431 813.463 290.805C814.104 291.178 814.504 291.579 814.664 292.006C814.824 292.433 814.904 293.02 814.904 293.768C814.958 294.462 814.958 295.102 814.904 295.689C814.904 295.903 814.878 296.17 814.824 296.49C814.824 296.757 814.824 296.971 814.824 297.131C814.824 297.398 814.824 297.665 814.824 297.932C814.878 298.199 814.931 298.465 814.984 298.732C815.038 298.999 815.064 299.293 815.064 299.613C815.118 299.934 815.145 300.281 815.145 300.654ZM818.107 364.477C818.107 365.704 817.814 366.585 817.227 367.119C816.693 367.6 815.812 367.84 814.584 367.84C813.943 367.84 813.223 367.76 812.422 367.6C811.674 367.439 810.927 367.226 810.18 366.959C809.432 366.639 808.738 366.265 808.098 365.838C807.457 365.411 806.977 364.93 806.656 364.396C806.443 364.076 806.256 363.089 806.096 361.434C805.936 359.779 805.802 357.723 805.695 355.268C805.642 352.812 805.562 350.062 805.455 347.02C805.402 343.977 805.348 340.907 805.295 337.811C805.295 334.714 805.295 331.698 805.295 328.762C805.295 325.826 805.295 323.263 805.295 321.074V314.908C805.295 314.374 805.295 313.84 805.295 313.307C805.348 312.773 805.455 312.319 805.615 311.945C805.829 311.518 806.122 311.171 806.496 310.904C806.923 310.637 807.51 310.504 808.258 310.504C810.607 310.504 812.315 311.171 813.383 312.506C814.504 313.787 815.198 315.522 815.465 317.711C815.732 320.967 815.919 324.224 816.025 327.48C816.186 330.684 816.319 333.94 816.426 337.25C816.533 340.24 816.613 343.202 816.666 346.139C816.773 349.021 816.96 351.904 817.227 354.787C817.28 355.374 817.333 355.935 817.387 356.469C817.44 357.003 817.52 357.536 817.627 358.07C817.734 359.138 817.84 360.206 817.947 361.273C818.054 362.288 818.107 363.355 818.107 364.477ZM838.527 367.6C838.527 368.827 838.154 369.628 837.406 370.002C836.712 370.376 835.858 370.562 834.844 370.562C833.936 370.562 833.029 370.482 832.121 370.322C831.267 370.215 830.439 369.975 829.639 369.602C828.891 369.228 828.224 368.721 827.637 368.08C827.103 367.439 826.729 366.612 826.516 365.598C825.768 362.395 825.341 359.271 825.234 356.229C825.128 353.132 825.074 349.956 825.074 346.699V336.85C825.074 332.365 825.261 327.721 825.635 322.916C826.008 318.058 826.409 313.387 826.836 308.902C826.836 308.742 826.863 308.555 826.916 308.342C826.969 308.128 826.996 307.968 826.996 307.861C827.049 307.274 827.13 306.633 827.236 305.939C827.343 305.245 827.503 304.632 827.717 304.098C827.984 303.51 828.331 303.03 828.758 302.656C829.238 302.283 829.852 302.096 830.6 302.096C831.454 302.096 832.255 302.283 833.002 302.656C833.803 302.977 834.497 303.43 835.084 304.018C835.671 304.551 836.125 305.219 836.445 306.02C836.819 306.82 837.006 307.648 837.006 308.502C837.006 309.57 836.952 310.691 836.846 311.865C836.792 312.986 836.712 314.081 836.605 315.148C836.499 315.896 836.419 316.456 836.365 316.83C836.365 317.204 836.339 317.818 836.285 318.672C836.926 317.551 837.646 316.43 838.447 315.309C839.301 314.134 840.236 313.12 841.25 312.266C842.264 311.358 843.359 310.637 844.533 310.104C845.761 309.516 847.069 309.223 848.457 309.223C849.845 309.223 850.993 309.463 851.9 309.943C852.808 310.37 853.529 310.984 854.062 311.785C854.596 312.533 854.97 313.44 855.184 314.508C855.397 315.576 855.504 316.697 855.504 317.871C855.504 318.618 855.477 319.339 855.424 320.033C855.424 320.727 855.397 321.421 855.344 322.115C855.29 322.809 855.237 323.503 855.184 324.197C855.184 324.838 855.184 325.532 855.184 326.279C855.184 327.667 855.21 329.002 855.264 330.283C855.37 331.511 855.477 332.819 855.584 334.207C856.118 332.445 856.758 330.443 857.506 328.201C858.307 325.959 859.214 323.663 860.229 321.314C861.296 318.965 862.444 316.67 863.672 314.428C864.953 312.132 866.314 310.104 867.756 308.342C869.251 306.58 870.852 305.165 872.561 304.098C874.269 302.977 876.057 302.416 877.926 302.416C880.862 302.416 882.917 303.27 884.092 304.979C885.32 306.687 885.934 308.876 885.934 311.545C885.934 312.292 885.907 313.093 885.854 313.947C885.8 314.748 885.72 315.522 885.613 316.27C885.346 319.152 885.133 322.115 884.973 325.158C884.866 328.201 884.812 331.164 884.812 334.047V335.568C884.812 339.305 884.973 342.829 885.293 346.139C885.613 349.449 886.254 352.945 887.215 356.629L887.855 358.791C888.069 359.538 888.309 360.366 888.576 361.273C888.896 362.181 889.163 363.062 889.377 363.916C889.59 364.77 889.777 365.571 889.938 366.318C890.098 367.066 890.178 367.653 890.178 368.08C890.178 369.201 889.777 369.949 888.977 370.322C888.176 370.696 887.348 370.883 886.494 370.883C885.96 370.883 885.346 370.856 884.652 370.803C883.958 370.803 883.264 370.723 882.57 370.562C881.93 370.456 881.289 370.269 880.648 370.002C880.061 369.735 879.581 369.388 879.207 368.961V369.041C878.727 368.561 878.38 367.973 878.166 367.279C877.952 366.585 877.792 365.891 877.686 365.197L877.525 364.477C876.778 361.594 876.137 359.005 875.604 356.709C875.123 354.413 874.723 352.118 874.402 349.822C874.082 347.527 873.842 345.151 873.682 342.695C873.575 340.24 873.521 337.41 873.521 334.207C873.521 331.484 873.628 328.708 873.842 325.879C874.109 323.049 874.376 320.273 874.643 317.551C874.643 317.284 874.643 316.99 874.643 316.67C874.696 316.296 874.749 315.976 874.803 315.709C872.774 318.859 870.986 322.329 869.438 326.119C867.943 329.856 866.581 333.7 865.354 337.65C864.179 341.601 863.138 345.578 862.23 349.582C861.376 353.533 860.602 357.296 859.908 360.873C859.908 360.926 860.015 361.247 860.229 361.834C860.495 362.368 860.736 363.008 860.949 363.756C861.216 364.45 861.456 365.144 861.67 365.838C861.883 366.479 861.99 366.906 861.99 367.119C861.99 368.347 861.59 369.094 860.789 369.361C859.988 369.628 859.161 369.762 858.307 369.762C857.666 369.762 856.972 369.735 856.225 369.682C855.477 369.628 854.73 369.495 853.982 369.281C853.288 369.068 852.621 368.774 851.98 368.4C851.393 368.08 850.913 367.6 850.539 366.959C850.219 366.425 849.845 365.171 849.418 363.195C848.991 361.167 848.537 358.818 848.057 356.148C847.576 353.426 847.122 350.516 846.695 347.42C846.268 344.324 845.868 341.387 845.494 338.611C845.12 335.835 844.827 333.406 844.613 331.324C844.4 329.242 844.293 327.827 844.293 327.08V325.879C842.585 329.562 841.17 333.513 840.049 337.73C838.928 341.948 838.074 346.085 837.486 350.143L837.166 351.584C837.059 352.011 836.979 352.438 836.926 352.865C836.872 353.239 836.846 353.613 836.846 353.986C836.846 354.574 836.899 355.294 837.006 356.148C837.166 357.003 837.353 357.937 837.566 358.951C837.833 360.339 838.047 361.781 838.207 363.275C838.421 364.717 838.527 366.158 838.527 367.6ZM906.354 347.18C906.354 349.742 906.327 352.091 906.273 354.227C906.273 356.362 906.327 358.711 906.434 361.273L907.875 360.232L908.756 359.672C911.372 357.59 913.641 355.054 915.562 352.064C917.538 349.021 919.166 345.792 920.447 342.375C921.729 338.958 922.663 335.462 923.25 331.885C923.891 328.255 924.211 324.811 924.211 321.555C924.211 320.914 924.184 320.033 924.131 318.912C924.131 317.738 924.024 316.59 923.811 315.469C923.597 314.348 923.277 313.387 922.85 312.586C922.423 311.732 921.809 311.305 921.008 311.305C919.727 311.305 918.419 312.079 917.084 313.627C915.749 315.175 914.495 317.017 913.32 319.152C912.199 321.288 911.185 323.45 910.277 325.639C909.37 327.774 908.702 329.456 908.275 330.684C908.275 330.737 908.249 330.764 908.195 330.764C908.195 330.764 908.195 330.79 908.195 330.844V330.924C907.875 331.671 907.528 332.472 907.154 333.326C906.834 334.18 906.62 334.981 906.514 335.729C906.407 336.476 906.327 337.33 906.273 338.291C906.22 339.199 906.193 340.16 906.193 341.174C906.193 341.708 906.193 342.242 906.193 342.775C906.247 343.256 906.273 343.71 906.273 344.137C906.273 344.724 906.273 345.285 906.273 345.818C906.327 346.299 906.354 346.753 906.354 347.18ZM910.758 420.371C910.758 421.546 910.438 422.346 909.797 422.773C909.156 423.201 908.302 423.414 907.234 423.414C905.953 423.414 904.538 423.201 902.99 422.773C901.442 422.4 900.214 421.679 899.307 420.611C899.04 420.238 898.773 419.143 898.506 417.328C898.292 415.513 898.079 413.378 897.865 410.922C897.652 408.52 897.465 406.01 897.305 403.395C897.145 400.832 896.984 398.563 896.824 396.588L896.504 392.344C895.863 380.919 895.543 369.495 895.543 358.07C895.543 351.397 895.65 344.857 895.863 338.451C896.13 331.992 896.397 325.452 896.664 318.832L896.984 310.424C896.984 309.57 896.984 308.742 896.984 307.941C897.038 307.087 897.145 306.26 897.305 305.459C897.572 304.765 897.892 304.231 898.266 303.857C898.693 303.43 899.36 303.217 900.268 303.217C902.563 303.217 904.245 303.911 905.312 305.299C906.38 306.633 906.994 308.288 907.154 310.264C908.863 307.915 910.891 306.046 913.24 304.658C915.643 303.27 918.392 302.576 921.488 302.576C924.104 302.576 926.293 303.163 928.055 304.338C929.87 305.512 931.311 307.034 932.379 308.902C933.447 310.717 934.194 312.773 934.621 315.068C935.102 317.311 935.342 319.526 935.342 321.715C935.342 325.932 934.968 330.15 934.221 334.367C933.473 338.531 932.299 342.589 930.697 346.539C929.149 350.436 927.174 354.146 924.771 357.67C922.369 361.14 919.54 364.236 916.283 366.959C915.856 367.333 915.349 367.733 914.762 368.16C914.174 368.587 913.561 368.988 912.92 369.361C912.279 369.735 911.612 370.055 910.918 370.322C910.277 370.589 909.69 370.723 909.156 370.723C908.569 370.723 908.062 370.589 907.635 370.322C907.208 370.055 906.834 369.735 906.514 369.361C906.62 373.045 906.754 376.862 906.914 380.812C907.128 384.763 907.368 388.714 907.635 392.664C907.902 396.668 908.222 400.618 908.596 404.516C909.023 408.413 909.53 412.176 910.117 415.807C910.277 416.501 910.411 417.221 910.518 417.969C910.678 418.77 910.758 419.57 910.758 420.371ZM960.486 370.322C960.486 371.07 960.299 371.684 959.926 372.164C959.552 372.645 959.072 373.018 958.484 373.285C957.951 373.605 957.337 373.819 956.643 373.926C956.002 374.086 955.415 374.166 954.881 374.166C953.012 374.166 951.384 373.632 949.996 372.564C948.608 371.497 947.407 370.109 946.393 368.4C945.378 366.745 944.551 364.85 943.91 362.715C943.27 360.526 942.736 358.364 942.309 356.229C941.882 354.04 941.561 351.958 941.348 349.982C941.134 347.954 940.974 346.219 940.867 344.777C940.387 339.812 940.04 334.768 939.826 329.643C939.666 324.518 939.586 319.446 939.586 314.428C939.586 300.708 940.066 287.121 941.027 273.668C941.027 273.454 941.027 273.214 941.027 272.947C941.081 272.68 941.107 272.413 941.107 272.146C941.161 271.025 941.214 269.744 941.268 268.303C941.321 266.808 941.401 265.34 941.508 263.898C941.615 262.457 941.721 261.149 941.828 259.975C941.988 258.747 942.175 257.893 942.389 257.412V257.492C942.602 256.745 942.896 256.184 943.27 255.811C943.643 255.437 944.284 255.25 945.191 255.25C947.113 255.25 948.742 255.891 950.076 257.172C951.411 258.453 952.078 260.055 952.078 261.977C952.078 262.404 952.051 262.831 951.998 263.258C951.998 263.632 951.971 264.005 951.918 264.379C951.865 264.753 951.811 265.126 951.758 265.5C951.758 265.82 951.758 266.114 951.758 266.381C951.598 268.463 951.464 270.545 951.357 272.627C951.304 274.656 951.224 276.711 951.117 278.793C950.85 283.384 950.637 287.975 950.477 292.566C950.37 297.104 950.316 301.695 950.316 306.34C950.316 308.315 950.343 310.904 950.396 314.107C950.45 317.311 950.557 320.807 950.717 324.598C950.877 328.335 951.09 332.205 951.357 336.209C951.678 340.213 952.078 344.03 952.559 347.66C953.039 351.29 953.6 354.574 954.24 357.51C954.934 360.446 955.735 362.715 956.643 364.316C957.123 364.53 957.577 364.877 958.004 365.357C958.484 365.785 958.885 366.292 959.205 366.879C959.579 367.413 959.872 367.973 960.086 368.561C960.353 369.201 960.486 369.788 960.486 370.322ZM992.758 353.346C992.758 354.947 992.304 356.602 991.396 358.311C990.542 360.019 989.421 361.594 988.033 363.035C986.645 364.423 985.044 365.571 983.229 366.479C981.467 367.386 979.705 367.84 977.943 367.84C975.434 367.84 973.272 367.359 971.457 366.398C969.642 365.384 968.067 364.049 966.732 362.395C965.398 360.686 964.303 358.764 963.449 356.629C962.648 354.493 962.008 352.305 961.527 350.062C961.047 347.767 960.7 345.498 960.486 343.256C960.326 340.96 960.246 338.878 960.246 337.01C960.246 335.408 960.326 333.513 960.486 331.324C960.7 329.135 961.02 326.867 961.447 324.518C961.928 322.169 962.568 319.846 963.369 317.551C964.17 315.255 965.158 313.2 966.332 311.385C967.56 309.57 969.001 308.102 970.656 306.98C972.365 305.859 974.313 305.299 976.502 305.299C978.21 305.299 979.732 305.646 981.066 306.34C982.454 307.034 983.602 307.968 984.51 309.143C985.471 310.264 986.191 311.572 986.672 313.066C987.206 314.561 987.473 316.109 987.473 317.711C987.473 319.793 986.992 322.062 986.031 324.518C985.07 326.973 983.816 329.349 982.268 331.645C980.773 333.94 979.064 336.022 977.143 337.891C975.274 339.706 973.406 341.094 971.537 342.055C971.644 343.016 971.857 344.43 972.178 346.299C972.498 348.114 972.925 349.929 973.459 351.744C974.046 353.559 974.714 355.134 975.461 356.469C976.262 357.803 977.196 358.471 978.264 358.471C978.798 358.471 979.251 358.311 979.625 357.99C980.052 357.67 980.426 357.243 980.746 356.709C981.066 356.175 981.333 355.588 981.547 354.947C981.814 354.307 982.054 353.693 982.268 353.105L982.748 351.984C982.855 351.824 982.908 351.717 982.908 351.664C982.962 351.611 983.015 351.531 983.068 351.424C983.442 350.73 983.789 350.089 984.109 349.502C984.483 348.915 984.99 348.408 985.631 347.98H985.551C985.764 347.767 985.978 347.66 986.191 347.66C986.458 347.607 986.699 347.58 986.912 347.58C987.499 347.58 988.14 347.767 988.834 348.141C989.528 348.514 990.169 348.995 990.756 349.582C991.343 350.116 991.824 350.73 992.197 351.424C992.571 352.064 992.758 352.705 992.758 353.346ZM976.902 318.031C976.902 317.497 976.876 316.937 976.822 316.35C976.769 315.762 976.635 315.255 976.422 314.828C975.674 315.736 975.007 316.83 974.42 318.111C973.886 319.339 973.432 320.647 973.059 322.035C972.685 323.37 972.365 324.731 972.098 326.119C971.884 327.507 971.724 328.788 971.617 329.963C973.005 328.308 974.233 326.439 975.301 324.357C976.368 322.222 976.902 320.113 976.902 318.031ZM1054.58 366.959C1054.58 368.027 1054.31 368.747 1053.78 369.121C1053.24 369.548 1052.5 369.762 1051.54 369.762C1049.03 369.762 1047.21 369.094 1046.09 367.76C1045.02 366.425 1044.22 364.663 1043.69 362.475C1043.53 361.727 1043.37 360.98 1043.21 360.232C1043.05 359.432 1042.91 358.658 1042.81 357.91C1042.7 357.216 1042.59 356.736 1042.49 356.469C1042.38 356.202 1042.27 355.695 1042.17 354.947C1041.53 356.495 1040.72 358.124 1039.76 359.832C1038.86 361.487 1037.79 363.035 1036.56 364.477C1035.33 365.865 1033.94 367.012 1032.4 367.92C1030.9 368.827 1029.25 369.281 1027.43 369.281C1025.51 369.281 1023.91 368.827 1022.63 367.92C1021.35 366.959 1020.33 365.785 1019.58 364.396C1018.89 362.955 1018.38 361.38 1018.06 359.672C1017.8 357.964 1017.66 356.335 1017.66 354.787C1017.66 351.157 1018.01 347.233 1018.7 343.016C1019.45 338.745 1020.46 334.501 1021.75 330.283C1023.03 326.012 1024.52 321.928 1026.23 318.031C1027.94 314.081 1029.81 310.637 1031.84 307.701V307.781L1032.32 307.061C1032.9 306.26 1033.57 305.406 1034.32 304.498C1035.12 303.537 1036.05 303.057 1037.12 303.057C1038.14 303.057 1039.02 303.51 1039.76 304.418C1040.51 305.272 1041.04 306.18 1041.37 307.141C1042.75 307.408 1043.87 307.755 1044.73 308.182C1045.58 308.555 1046.25 309.036 1046.73 309.623C1047.21 310.21 1047.53 310.904 1047.69 311.705C1047.85 312.452 1047.93 313.28 1047.93 314.188C1047.93 314.561 1047.93 314.962 1047.93 315.389C1047.93 315.816 1047.9 316.243 1047.85 316.67C1047.8 317.097 1047.77 317.604 1047.77 318.191C1047.77 318.779 1047.77 319.312 1047.77 319.793C1047.77 320.327 1047.85 321.021 1048.01 321.875C1048.23 322.729 1048.44 323.61 1048.65 324.518L1049.21 327.48C1049.48 329.029 1049.69 330.79 1049.85 332.766C1050.07 334.741 1050.31 336.716 1050.57 338.691C1050.79 340.72 1051 342.695 1051.21 344.617C1051.43 346.486 1051.64 348.221 1051.86 349.822L1053.78 361.674L1054.02 363.035C1054.12 363.729 1054.23 364.37 1054.34 364.957C1054.5 365.544 1054.58 366.212 1054.58 366.959ZM1036.24 320.914C1036.24 320.807 1036.21 320.647 1036.16 320.434C1036.11 320.167 1036.05 319.9 1036 319.633C1034.77 322.249 1033.68 325.105 1032.72 328.201C1031.81 331.244 1031.04 334.367 1030.39 337.57C1029.81 340.72 1029.35 343.896 1029.03 347.1C1028.77 350.249 1028.63 353.239 1028.63 356.068C1028.63 356.335 1028.63 356.576 1028.63 356.789C1028.63 357.003 1028.66 357.216 1028.71 357.43V357.51C1029.99 355.535 1031.09 352.945 1032 349.742C1032.96 346.486 1033.76 343.096 1034.4 339.572C1035.04 335.995 1035.49 332.552 1035.76 329.242C1036.08 325.879 1036.24 323.103 1036.24 320.914ZM1100.54 348.141C1100.54 348.674 1100.38 349.315 1100.06 350.062C1099.8 350.757 1099.42 351.504 1098.94 352.305C1098.51 353.052 1098.03 353.826 1097.5 354.627C1096.97 355.428 1096.46 356.148 1095.98 356.789L1094.78 358.471L1093.58 360.553L1092.54 362.475C1092.59 363.542 1092.67 364.69 1092.78 365.918C1092.88 367.146 1092.99 368.32 1093.1 369.441C1093.68 374.94 1094.19 380.546 1094.62 386.258C1095.1 391.97 1095.34 397.576 1095.34 403.074C1095.34 406.01 1095.1 408.973 1094.62 411.963C1094.14 415.006 1093.23 417.729 1091.89 420.131C1090.61 422.587 1088.82 424.589 1086.53 426.137C1084.23 427.685 1081.3 428.459 1077.72 428.459C1075.26 428.459 1073.18 428.005 1071.47 427.098C1069.77 426.19 1068.38 424.962 1067.31 423.414C1066.3 421.919 1065.55 420.158 1065.07 418.129C1064.59 416.1 1064.35 413.992 1064.35 411.803C1064.35 407.479 1064.85 403.101 1065.87 398.67C1066.88 394.239 1068.19 389.861 1069.79 385.537C1071.45 381.213 1073.32 376.969 1075.4 372.805C1077.48 368.694 1079.59 364.743 1081.72 360.953C1081.72 360.846 1081.72 360.74 1081.72 360.633C1081.72 360.473 1081.7 360.232 1081.64 359.912C1080.95 361.193 1080.15 362.528 1079.24 363.916C1078.39 365.251 1077.4 366.452 1076.28 367.52C1075.21 368.587 1074.01 369.468 1072.68 370.162C1071.39 370.856 1069.95 371.203 1068.35 371.203C1066.11 371.203 1064.24 370.669 1062.75 369.602C1061.25 368.534 1060.05 367.173 1059.14 365.518C1058.29 363.863 1057.67 362.048 1057.3 360.072C1056.93 358.097 1056.74 356.229 1056.74 354.467C1056.74 352.438 1056.85 350.436 1057.06 348.461C1057.33 346.486 1057.62 344.564 1057.94 342.695C1058.48 339.706 1059.14 336.476 1059.94 333.006C1060.8 329.482 1061.84 326.012 1063.07 322.596C1064.29 319.126 1065.71 315.869 1067.31 312.826C1068.97 309.783 1070.89 307.194 1073.08 305.059L1073.72 304.498C1074.41 303.804 1075.21 303.137 1076.12 302.496C1077.03 301.802 1077.96 301.455 1078.92 301.455C1079.51 301.455 1080.02 301.615 1080.44 301.936C1080.92 302.256 1081.32 302.683 1081.64 303.217C1081.96 303.697 1082.21 304.231 1082.37 304.818C1082.58 305.406 1082.69 305.966 1082.69 306.5C1082.69 307.141 1082.45 307.835 1081.96 308.582H1082.12C1085.38 308.582 1087.57 310.077 1088.69 313.066C1089.28 313.6 1089.71 314.241 1089.97 314.988C1090.29 315.736 1090.45 316.536 1090.45 317.391C1090.45 317.818 1090.43 318.298 1090.37 318.832C1090.32 319.312 1090.24 319.766 1090.13 320.193C1090.03 320.674 1089.95 321.128 1089.89 321.555C1089.84 321.982 1089.81 322.382 1089.81 322.756C1089.81 323.984 1089.84 325.505 1089.89 327.32C1089.95 329.135 1090.03 331.031 1090.13 333.006C1090.24 334.981 1090.35 336.93 1090.45 338.852C1090.61 340.72 1090.75 342.348 1090.85 343.736C1091.23 343.256 1091.65 342.829 1092.13 342.455C1092.67 342.081 1093.28 341.895 1093.98 341.895C1094.56 341.895 1095.23 342.108 1095.98 342.535C1096.78 342.962 1097.5 343.496 1098.14 344.137C1098.83 344.777 1099.4 345.471 1099.82 346.219C1100.3 346.913 1100.54 347.553 1100.54 348.141ZM1078.52 315.148C1078.52 314.828 1078.52 314.481 1078.52 314.107C1078.57 313.734 1078.65 313.333 1078.76 312.906L1078.2 313.627C1077.77 314.107 1077.37 314.561 1077 314.988C1076.63 315.415 1076.28 315.869 1075.96 316.35C1074.57 318.378 1073.34 321.021 1072.28 324.277C1071.26 327.48 1070.41 330.87 1069.71 334.447C1069.02 337.971 1068.49 341.441 1068.11 344.857C1067.79 348.274 1067.63 351.21 1067.63 353.666C1067.63 354.894 1067.66 356.122 1067.71 357.35C1067.76 358.577 1068.03 359.779 1068.51 360.953C1069.26 360.152 1069.87 359.298 1070.35 358.391C1070.83 357.43 1071.29 356.442 1071.71 355.428C1072.89 352.812 1073.9 349.769 1074.76 346.299C1075.61 342.829 1076.31 339.252 1076.84 335.568C1077.37 331.885 1077.77 328.281 1078.04 324.758C1078.31 321.181 1078.47 317.978 1078.52 315.148ZM1084.61 400.672C1084.61 397.042 1084.53 393.625 1084.37 390.422C1084.21 387.272 1083.97 383.882 1083.65 380.252C1082.69 382.548 1081.7 385.003 1080.68 387.619C1079.72 390.288 1078.87 392.958 1078.12 395.627C1077.37 398.35 1076.76 401.046 1076.28 403.715C1075.8 406.384 1075.56 408.92 1075.56 411.322V411.883C1075.56 413.111 1075.64 414.419 1075.8 415.807C1075.96 417.248 1076.47 418.423 1077.32 419.33H1078.2C1079.27 419.33 1080.15 418.956 1080.84 418.209C1081.59 417.515 1082.21 416.607 1082.69 415.486C1083.17 414.365 1083.54 413.111 1083.81 411.723C1084.07 410.335 1084.26 408.947 1084.37 407.559C1084.47 406.171 1084.53 404.863 1084.53 403.635C1084.58 402.407 1084.61 401.419 1084.61 400.672ZM1136.74 366.959C1136.74 368.027 1136.47 368.747 1135.94 369.121C1135.4 369.548 1134.66 369.762 1133.7 369.762C1131.19 369.762 1129.37 369.094 1128.25 367.76C1127.18 366.425 1126.38 364.663 1125.85 362.475C1125.69 361.727 1125.53 360.98 1125.37 360.232C1125.21 359.432 1125.07 358.658 1124.97 357.91C1124.86 357.216 1124.75 356.736 1124.65 356.469C1124.54 356.202 1124.43 355.695 1124.33 354.947C1123.69 356.495 1122.88 358.124 1121.92 359.832C1121.02 361.487 1119.95 363.035 1118.72 364.477C1117.49 365.865 1116.1 367.012 1114.56 367.92C1113.06 368.827 1111.41 369.281 1109.59 369.281C1107.67 369.281 1106.07 368.827 1104.79 367.92C1103.51 366.959 1102.49 365.785 1101.74 364.396C1101.05 362.955 1100.54 361.38 1100.22 359.672C1099.96 357.964 1099.82 356.335 1099.82 354.787C1099.82 351.157 1100.17 347.233 1100.86 343.016C1101.61 338.745 1102.62 334.501 1103.91 330.283C1105.19 326.012 1106.68 321.928 1108.39 318.031C1110.1 314.081 1111.97 310.637 1114 307.701V307.781L1114.48 307.061C1115.06 306.26 1115.73 305.406 1116.48 304.498C1117.28 303.537 1118.21 303.057 1119.28 303.057C1120.3 303.057 1121.18 303.51 1121.92 304.418C1122.67 305.272 1123.21 306.18 1123.53 307.141C1124.91 307.408 1126.03 307.755 1126.89 308.182C1127.74 308.555 1128.41 309.036 1128.89 309.623C1129.37 310.21 1129.69 310.904 1129.85 311.705C1130.01 312.452 1130.09 313.28 1130.09 314.188C1130.09 314.561 1130.09 314.962 1130.09 315.389C1130.09 315.816 1130.07 316.243 1130.01 316.67C1129.96 317.097 1129.93 317.604 1129.93 318.191C1129.93 318.779 1129.93 319.312 1129.93 319.793C1129.93 320.327 1130.01 321.021 1130.17 321.875C1130.39 322.729 1130.6 323.61 1130.81 324.518L1131.37 327.48C1131.64 329.029 1131.85 330.79 1132.01 332.766C1132.23 334.741 1132.47 336.716 1132.73 338.691C1132.95 340.72 1133.16 342.695 1133.38 344.617C1133.59 346.486 1133.8 348.221 1134.02 349.822L1135.94 361.674L1136.18 363.035C1136.28 363.729 1136.39 364.37 1136.5 364.957C1136.66 365.544 1136.74 366.212 1136.74 366.959ZM1118.4 320.914C1118.4 320.807 1118.37 320.647 1118.32 320.434C1118.27 320.167 1118.21 319.9 1118.16 319.633C1116.93 322.249 1115.84 325.105 1114.88 328.201C1113.97 331.244 1113.2 334.367 1112.55 337.57C1111.97 340.72 1111.51 343.896 1111.19 347.1C1110.93 350.249 1110.79 353.239 1110.79 356.068C1110.79 356.335 1110.79 356.576 1110.79 356.789C1110.79 357.003 1110.82 357.216 1110.87 357.43V357.51C1112.15 355.535 1113.25 352.945 1114.16 349.742C1115.12 346.486 1115.92 343.096 1116.56 339.572C1117.2 335.995 1117.65 332.552 1117.92 329.242C1118.24 325.879 1118.4 323.103 1118.4 320.914ZM1152.11 300.654C1152.11 301.562 1151.9 302.229 1151.47 302.656C1151.1 303.03 1150.38 303.217 1149.31 303.217C1148.83 303.217 1148.08 303.163 1147.07 303.057C1146.05 302.896 1145.01 302.683 1143.95 302.416C1142.93 302.149 1142.02 301.775 1141.22 301.295C1140.48 300.814 1140.1 300.227 1140.1 299.533C1140.1 299.32 1140.18 298.732 1140.34 297.771C1140.5 296.757 1140.69 295.689 1140.9 294.568C1141.17 293.447 1141.38 292.433 1141.54 291.525C1141.76 290.618 1141.92 290.111 1142.02 290.004V290.084C1142.29 289.657 1142.61 289.39 1142.98 289.283C1143.36 289.176 1143.73 289.123 1144.11 289.123C1144.59 289.123 1145.2 289.203 1145.95 289.363C1146.75 289.47 1147.52 289.657 1148.27 289.924C1149.07 290.137 1149.79 290.431 1150.43 290.805C1151.07 291.178 1151.47 291.579 1151.63 292.006C1151.79 292.433 1151.87 293.02 1151.87 293.768C1151.93 294.462 1151.93 295.102 1151.87 295.689C1151.87 295.903 1151.85 296.17 1151.79 296.49C1151.79 296.757 1151.79 296.971 1151.79 297.131C1151.79 297.398 1151.79 297.665 1151.79 297.932C1151.85 298.199 1151.9 298.465 1151.95 298.732C1152.01 298.999 1152.03 299.293 1152.03 299.613C1152.09 299.934 1152.11 300.281 1152.11 300.654ZM1155.08 364.477C1155.08 365.704 1154.78 366.585 1154.2 367.119C1153.66 367.6 1152.78 367.84 1151.55 367.84C1150.91 367.84 1150.19 367.76 1149.39 367.6C1148.64 367.439 1147.9 367.226 1147.15 366.959C1146.4 366.639 1145.71 366.265 1145.07 365.838C1144.43 365.411 1143.95 364.93 1143.62 364.396C1143.41 364.076 1143.22 363.089 1143.06 361.434C1142.9 359.779 1142.77 357.723 1142.66 355.268C1142.61 352.812 1142.53 350.062 1142.42 347.02C1142.37 343.977 1142.32 340.907 1142.26 337.811C1142.26 334.714 1142.26 331.698 1142.26 328.762C1142.26 325.826 1142.26 323.263 1142.26 321.074V314.908C1142.26 314.374 1142.26 313.84 1142.26 313.307C1142.32 312.773 1142.42 312.319 1142.58 311.945C1142.8 311.518 1143.09 311.171 1143.46 310.904C1143.89 310.637 1144.48 310.504 1145.23 310.504C1147.58 310.504 1149.28 311.171 1150.35 312.506C1151.47 313.787 1152.17 315.522 1152.43 317.711C1152.7 320.967 1152.89 324.224 1152.99 327.48C1153.15 330.684 1153.29 333.94 1153.39 337.25C1153.5 340.24 1153.58 343.202 1153.63 346.139C1153.74 349.021 1153.93 351.904 1154.2 354.787C1154.25 355.374 1154.3 355.935 1154.36 356.469C1154.41 357.003 1154.49 357.536 1154.6 358.07C1154.7 359.138 1154.81 360.206 1154.92 361.273C1155.02 362.288 1155.08 363.355 1155.08 364.477ZM1175.5 367.6C1175.5 368.827 1175.12 369.628 1174.38 370.002C1173.68 370.376 1172.83 370.562 1171.81 370.562C1170.9 370.562 1170 370.482 1169.09 370.322C1168.24 370.215 1167.41 369.975 1166.61 369.602C1165.86 369.228 1165.19 368.721 1164.61 368.08C1164.07 367.439 1163.7 366.612 1163.48 365.598C1162.74 362.395 1162.31 359.271 1162.2 356.229C1162.1 353.132 1162.04 349.956 1162.04 346.699V336.85C1162.04 332.365 1162.23 327.721 1162.6 322.916C1162.98 318.058 1163.38 313.387 1163.8 308.902C1163.8 308.742 1163.83 308.555 1163.88 308.342C1163.94 308.128 1163.96 307.968 1163.96 307.861C1164.02 307.274 1164.1 306.633 1164.21 305.939C1164.31 305.245 1164.47 304.632 1164.69 304.098C1164.95 303.51 1165.3 303.03 1165.73 302.656C1166.21 302.283 1166.82 302.096 1167.57 302.096C1168.42 302.096 1169.22 302.283 1169.97 302.656C1170.77 302.977 1171.47 303.43 1172.05 304.018C1172.64 304.551 1173.09 305.219 1173.41 306.02C1173.79 306.82 1173.97 307.648 1173.97 308.502C1173.97 309.41 1173.95 310.424 1173.89 311.545C1173.84 312.613 1173.76 313.627 1173.65 314.588C1173.65 314.855 1173.63 315.148 1173.57 315.469C1173.57 315.789 1173.55 316.083 1173.49 316.35C1174.24 314.855 1175.1 313.307 1176.06 311.705C1177.02 310.05 1178.11 308.555 1179.34 307.221C1180.62 305.833 1182.01 304.712 1183.5 303.857C1185.05 303.003 1186.76 302.576 1188.63 302.576C1190.18 302.576 1191.46 302.816 1192.47 303.297C1193.49 303.777 1194.29 304.471 1194.88 305.379C1195.52 306.233 1195.94 307.247 1196.16 308.422C1196.42 309.596 1196.56 310.851 1196.56 312.186C1196.56 314.001 1196.5 315.842 1196.4 317.711C1196.29 319.526 1196.18 321.341 1196.08 323.156C1195.92 325.025 1195.78 326.867 1195.68 328.682C1195.57 330.497 1195.52 332.339 1195.52 334.207C1195.52 336.449 1195.57 338.771 1195.68 341.174C1195.78 343.523 1195.94 345.792 1196.16 347.98C1196.37 350.116 1196.61 352.064 1196.88 353.826C1197.14 355.535 1197.41 356.869 1197.68 357.83C1197.89 358.631 1198.1 359.565 1198.32 360.633C1198.59 361.647 1198.83 362.715 1199.04 363.836C1199.31 364.904 1199.52 365.945 1199.68 366.959C1199.84 367.973 1199.92 368.881 1199.92 369.682C1199.92 370.856 1199.44 371.604 1198.48 371.924C1197.57 372.244 1196.66 372.404 1195.76 372.404C1194.85 372.404 1193.81 372.324 1192.63 372.164C1191.51 372.057 1190.5 371.764 1189.59 371.283C1188.47 370.482 1187.72 369.361 1187.35 367.92C1187.03 366.479 1186.81 365.064 1186.71 363.676L1186.47 361.514C1186.31 360.232 1186.09 358.551 1185.83 356.469C1185.56 354.387 1185.29 352.091 1185.03 349.582C1184.81 347.073 1184.62 344.484 1184.46 341.814C1184.3 339.092 1184.22 336.449 1184.22 333.887C1184.22 331.591 1184.3 329.376 1184.46 327.24C1184.68 325.105 1184.89 322.943 1185.11 320.754C1185.21 319.633 1185.29 318.725 1185.35 318.031C1185.4 317.337 1185.48 316.43 1185.59 315.309C1184.52 317.017 1183.45 319.019 1182.38 321.314C1181.32 323.61 1180.3 326.012 1179.34 328.521C1178.38 330.977 1177.5 333.38 1176.7 335.729C1175.95 338.077 1175.36 340.133 1174.94 341.895L1174.46 343.656C1174.19 344.51 1173.95 345.365 1173.73 346.219C1173.57 347.073 1173.49 347.874 1173.49 348.621C1173.49 349.582 1173.55 350.703 1173.65 351.984C1173.76 353.212 1173.89 354.387 1174.05 355.508C1174.21 356.842 1174.4 358.204 1174.62 359.592C1174.62 359.699 1174.67 360.046 1174.78 360.633C1174.88 361.22 1174.99 361.914 1175.1 362.715C1175.2 363.516 1175.28 364.37 1175.34 365.277C1175.44 366.132 1175.5 366.906 1175.5 367.6Z" fill="#AF52DE"/>
<path d="M1348.85 98.2172C1359.63 109.001 1374.26 115.059 1389.51 115.059L1507.51 115.113C1515.05 115.113 1522.29 118.11 1527.62 123.445C1532.95 128.779 1535.95 136.015 1535.95 143.559C1535.95 151.103 1532.95 158.339 1527.62 163.673C1522.29 169.008 1515.05 172.005 1507.51 172.005H1332.01L1332.01 201.059H1507.51C1522.76 201.059 1537.38 195.001 1548.16 184.218C1558.95 173.434 1565.01 158.809 1565.01 143.559C1565.01 128.309 1558.95 113.684 1548.16 102.9C1537.38 92.1166 1522.76 86.0586 1507.51 86.0586L1492.51 86.0046H1389.51C1381.96 86.0046 1374.73 83.0076 1369.39 77.673C1364.06 72.3383 1361.06 65.1029 1361.06 57.5586C1361.06 50.0143 1364.06 42.7789 1369.39 37.4442C1374.73 32.1096 1381.96 29.1126 1389.51 29.1126H1565.01V0.0585938H1389.51C1374.26 0.0585938 1359.63 6.11661 1348.85 16.9C1338.06 27.6833 1332.01 42.3087 1332.01 57.5586C1332.01 72.8085 1338.06 87.4339 1348.85 98.2172Z" fill="#FD801A"/>
<path d="M16.8414 98.1586C27.6247 108.942 42.25 115 57.5 115L175.5 115.054C183.044 115.054 190.28 118.051 195.614 123.386C200.949 128.72 203.946 135.956 203.946 143.5C203.946 151.044 200.949 158.28 195.614 163.614C190.28 168.949 183.044 171.946 175.5 171.946H2.53998e-06L0 201H175.5C190.75 201 205.375 194.942 216.159 184.159C226.942 173.375 233 158.75 233 143.5C233 128.25 226.942 113.625 216.159 102.841C205.375 92.058 190.75 86 175.5 86L160.5 85.946H57.5C49.9557 85.946 42.7203 82.949 37.3856 77.6144C32.051 72.2797 29.054 65.0443 29.054 57.5C29.054 49.9557 32.051 42.7203 37.3856 37.3856C42.7203 32.051 49.9557 29.054 57.5 29.054H233V0H57.5C42.2501 0 27.6247 6.05802 16.8414 16.8414C6.05802 27.6247 0 42.2501 0 57.5C0 72.7499 6.05802 87.3753 16.8414 98.1586Z" fill="#FD801A"/>
<path d="M1037 -0.000773171C1052.25 -0.000774505 1066.88 6.05733 1077.66 16.8407C1088.44 27.624 1094.5 42.2495 1094.5 57.4995C1094.5 72.7495 1088.44 87.375 1077.66 98.1584C1066.88 108.942 1052.25 115 1037 115L897 115L897 201L868 201L868 85.9457L997.5 85.9457L1037 85.9458C1044.54 85.9458 1051.78 82.9488 1057.11 77.6141C1062.45 72.2795 1065.45 65.0439 1065.45 57.4995C1065.45 49.9551 1062.45 42.7197 1057.11 37.385C1051.78 32.0504 1044.54 29.0534 1037 29.0534L868 29.0534L868 -0.000773656L1037 -0.000773171Z" fill="#FD801A"/>
<path d="M1209.9 201.181C1225.15 201.15 1242.23 195.07 1252.99 184.292C1263.75 173.514 1269.78 158.913 1269.75 143.7L1269.77 0.0585924L1240.7 0.0586493L1240.7 143.758C1240.71 151.284 1237.73 158.507 1232.4 163.84C1227.08 169.172 1219.85 172.176 1212.31 172.191C1185.41 172.244 1166.9 172.191 1156.4 172.191C1156.4 183.677 1156.4 187.644 1156.4 201.183C1166.9 201.182 1193.65 201.213 1209.9 201.181Z" fill="#FD801A"/>
<path d="M294 0H520V29H428V200.5H396V29H294V0Z" fill="#FD801A"/>
<path d="M581 0H807V29H581V0Z" fill="#FD801A"/>
<rect x="581" y="86" width="226" height="29" fill="#FD801A"/>
<rect x="581" y="172" width="226" height="29" fill="#FD801A"/>
<circle cx="1192" cy="32" r="32" fill="#AF52DE"/>
</svg>
